HIERARCHY
ROOT Hips
{
  OFFSET -160.753 94.3818 -369.72
  CHANNELS 6 Xposition Yposition Zposition Zrotation Xrotation Yrotation
  JOINT RightUpLeg
  {
    OFFSET -8.9458 -8.66707 0.101652
    CHANNELS 3 Zrotation Xrotation Yrotation
    JOINT RightLeg
    {
      OFFSET 0 -44.4227 1.3727
      CHANNELS 3 Zrotation Xrotation Yrotation
      JOINT RightFoot
      {
        OFFSET 0.253549 -42.0924 -1.46059
        CHANNELS 3 Zrotation Xrotation Yrotation
        JOINT RightToes
        {
          OFFSET 0.04 -4.41509 8.4991
          CHANNELS 3 Zrotation Xrotation Yrotation
          End Site
          {
            OFFSET -0.08 -0.137448 9.77979
          }
        }
      }
    }
  }
  JOINT Spine
  {
    OFFSET 0 11.8905 0
    CHANNELS 3 Zrotation Xrotation Yrotation
    JOINT Spine1
    {
      OFFSET 0 25.6574 0.127663
      CHANNELS 3 Zrotation Xrotation Yrotation
      JOINT HEad
      {
        OFFSET 0 8.73416 0.011341
        CHANNELS 3 Zrotation Xrotation Yrotation
        End Site
        {
          OFFSET -0.29 12.7742 2.51395
        }
      }
      JOINT LeftShoulder1
      {
        OFFSET 8.99 -0.362252 -0.22
        CHANNELS 3 Zrotation Xrotation Yrotation
        JOINT LeftArm
        {
          OFFSET 10.2827 -0.00338 0.322123
          CHANNELS 3 Zrotation Xrotation Yrotation
          JOINT LeftForeArm
          {
            OFFSET 32.7669 0.099144 -1.42434
            CHANNELS 3 Zrotation Xrotation Yrotation
            JOINT LeftHand
            {
              OFFSET 27.5643 0.085362 1.02216
              CHANNELS 3 Zrotation Xrotation Yrotation
              End Site
              {
                OFFSET 16.7443 -0.6 1.50291
              }
            }
          }
        }
      }
      JOINT RightShoulder
      {
        OFFSET -8.99 -0.362252 -0.22
        CHANNELS 3 Zrotation Xrotation Yrotation
        JOINT RightArm
        {
          OFFSET -10.2827 -0.00338 0.322123
          CHANNELS 3 Zrotation Xrotation Yrotation
          JOINT RightForeArm
          {
            OFFSET -32.8971 0.099144 -1.42434
            CHANNELS 3 Zrotation Xrotation Yrotation
            JOINT RightHand
            {
              OFFSET -27.4921 0.085362 1.02216
              CHANNELS 3 Zrotation Xrotation Yrotation
              End Site
              {
                OFFSET -16.6312 -0.6 1.50291
              }
            }
          }
        }
      }
    }
  }
  JOINT LeftUpLeg
  {
    OFFSET 8.9458 -8.66707 0.101652
    CHANNELS 3 Zrotation Xrotation Yrotation
    JOINT LeftLeg
    {
      OFFSET 0 -44.4227 1.3727
      CHANNELS 3 Zrotation Xrotation Yrotation
      JOINT LeftFoot
      {
        OFFSET -0.253549 -42.0924 -1.46059
        CHANNELS 3 Zrotation Xrotation Yrotation
        JOINT LeftToes
        {
          OFFSET -0.04 -4.41509 8.4991
          CHANNELS 3 Zrotation Xrotation Yrotation
          End Site
          {
            OFFSET 0.08 -0.047448 9.77979
          }
        }
      }
    }
  }
}
MOTION
Frames:	7
Frame Time:	0.0166667
-154.256 94.3743 -389.414 4.2866 4.882 101.774 -25.1505 -5.36743 -4.71461 -12.8206 41.4616 36.1397 11.6206 0.182507 -0.0456812 0.0462048 0.000533403 0.662642 6.23332 15.1594 13.1175 0.0132452 -0.0157307 -0.0151804 -35.8188 22.2191 25.9398 -2.38542e-015 0 -0 154.439 -76.4641 166.308 -78.8919 59.3144 -63.9276 5.18434 17.1499 2.11599 29.6565 -1.22255 2.66066 58.2284 -23.7447 65.5114 47.8103 54.6339 79.3032 -5.00596 16.4315 3.46903 20.8958 -27.6862 15.5344 -4.13739 29.9056 3.81757 39.8685 -1.58994 1.93041 -1.18447e-009 1.5602e-007 -4.8713e-009 
-155.362 93.9884 -387.023 3.53475 4.51869 102.556 -24.6593 -1.3822 0.128999 -5.67763 35.6377 25.2971 11.5999 -0.706851 0.0344189 0.0462048 0.000533403 0.662642 6.18517 14.7232 13.755 0.0132457 -0.0157307 -0.0136484 -35.9651 21.4114 25.7295 -1.59028e-015 -1.19271e-015 6.36111e-015 155.68 -76.4641 168.629 -80.3478 59.1562 -62.4189 5.39028 16.6861 5.38327 28.9341 -1.00035 1.42845 60.5745 -22.6625 67.3472 48.3514 54.8414 78.3214 -5.36043 14.3087 4.41367 21.4036 -28.6569 14.629 -3.14176 28.9066 -0.0643672 41.0792 -1.36888 1.88927 -1.18446e-009 1.5602e-007 -4.87132e-009 
-156.318 93.6614 -384.647 2.99395 4.14027 103.217 -24.1415 2.07738 4.50795 0.701899 31.5105 14.7017 7.65376 -1.60495 0.118323 0.0462048 0.000533403 0.662642 6.25026 14.428 14.1284 0.013246 -0.0157307 -0.0123036 -36.0377 20.5793 25.7979 -7.95139e-016 -1.59028e-015 -3.18055e-015 156.044 -76.3203 170.274 -82.3179 59.1027 -60.6137 5.58743 16.8309 1.06575 28.4087 -0.624104 0.386333 62.5537 -21.6344 68.9807 48.9009 55.0521 77.2978 -5.46854 17.1864 2.23727 21.4813 -29.3193 13.6205 -1.08175 28.0388 -5.89729 41.0794 -1.31804 1.82704 -1.18447e-009 1.5602e-007 -4.87132e-009 
-157.142 93.2966 -382.359 2.66501 3.76593 103.791 -24.1272 5.03208 8.61806 6.87335 27.6728 5.04998 7.11006 -2.09965 0.153491 0.0462048 0.000533403 0.662642 6.41618 14.2626 14.2258 0.0132463 -0.0157307 -0.0114266 -36.0788 19.8002 26.1632 -2.38542e-015 -7.95139e-016 3.18055e-015 156.107 -76.091 171.719 -84.5503 59.0587 -58.5051 5.78603 16.6926 2.71545 27.8837 -0.152689 -0.51899 64.3888 -20.6238 70.3932 49.4321 55.2113 76.3139 -5.91329 16.1213 2.71624 21.266 -29.7315 12.5048 0.610942 26.8361 -10.671 40.9548 -1.32272 1.74035 -1.18447e-009 1.5602e-007 -4.87131e-009 
-157.825 92.9795 -380.252 2.54232 3.40756 104.309 -24.1458 7.48481 12.3032 12.622 24.0707 -2.99042 3.6371 -2.61053 0.147992 0.0462048 0.000533403 0.662642 6.69542 14.1893 14.054 0.0132463 -0.0157307 -0.0114266 -36.1138 19.1695 26.8167 -8.82781e-032 1.59028e-015 3.18055e-015 156.125 -75.7954 173.079 -86.9519 58.9649 -56.2556 5.78925 17.0056 -0.211326 27.5371 0.263569 -1.14665 65.8703 -19.6875 71.374 49.8746 55.3096 75.3751 -6.12306 17.894 1.48078 20.8367 -29.7624 11.3345 2.12302 25.4016 -14.506 40.5017 -1.3316 1.65568 -1.18447e-009 1.5602e-007 -4.87131e-009 
-158.476 92.7567 -378.249 2.59353 3.06886 104.775 -23.6518 8.86149 14.9883 16.5352 21.3426 -8.32427 3.04071 -2.72008 0.167615 0.0462048 0.000533403 0.662642 7.04277 14.1805 13.662 0.0132463 -0.0157307 -0.0114266 -36.0645 18.6632 27.6842 -1.59028e-015 -2.78299e-015 -6.36111e-015 156.505 -75.5449 174.691 -89.1567 58.7825 -54.0484 5.83719 17.1024 0.716885 27.168 0.784432 -1.5762 67.2351 -18.871 72.0617 50.1976 55.3616 74.5333 -6.30976 17.2951 1.62125 20.4085 -29.5582 10.2239 3.43641 24.0737 -17.3819 39.7225 -1.37513 1.5782 -1.18447e-009 1.5602e-007 -4.87131e-009 
-159.037 92.6082 -376.456 2.78072 2.74244 105.167 -22.4176 9.31239 16.5582 18.7029 20.1287 -11.1498 0.581754 -2.88517 0.103667 0.0462048 0.000533403 0.662642 7.42087 14.2074 13.1265 0.0132463 -0.0157307 -0.0114266 -35.9341 18.3179 28.7143 1.59028e-015 -1.19271e-015 -0 157.223 -75.3633 176.497 -91.0385 58.5353 -52.0596 5.76703 17.5046 -1.03847 26.8194 1.34719 -1.7382 68.4052 -18.2109 72.4594 50.3831 55.3754 73.7462 -6.19143 18.4525 0.692432 20.0894 -29.2489 9.30169 3.96458 23.9216 -17.656 39.4461 -1.32002 1.49632 -1.18446e-009 1.5602e-007 -4.87131e-009 
